/* XPM */
static char * exit_xpm[] = {
"16 16 9 1",
" 	c #744B30",
".	c #3E2613",
"+	c #62351C",
"@	c #1D131E",
"#	c #2B1C1D",
"$	c #2E2533",
"%	c #726B7E",
"&	c #46425D",
"*	c #B19998",
"  .+++.    .+++@",
"+++++++++++++++@",
"++++ +++++++ ++@",
"###+.+######+.+@",
"+.#+++#.++.#+$+@",
"++.+++.++++.@%@@",
"++.+++.++++.@@@@",
"++.+++.++++.$&$@",
"++.+++.++++.@*@@",
"++.+++.++++.@*@@",
"  .+++.    .$%$@",
"  .+++.    .$%$@",
"++++++++++++$&$@",
"++++ +++++++@&@@",
"###+.+######@@@@",
"+.#+++#.++.#+++@"};
