/* XPM */
static char * floor_xpm[] = {
"16 16 2 1",
" 	c #6A8D8E",
".	c #666D8C",
"   .   ..  ..  .",
"   .   ..  ... .",
"   ..  .....  ..",
".  .....  ..   .",
" ...   .   .   .",
"  ..   .   .  . ",
"  ..   ..  .... ",
" .  ...  ...  . ",
" .   ..   .   . ",
"...   .   .   ..",
"  ..  .   .   . ",
"   ........   . ",
"   ..   ...  .. ",
".  ..   . ... ..",
"......  .   .  .",
".  .  ...   .  ."};
