/* XPM */
static char * item_xpm[] = {
"16 16 9 1",
" 	c None",
".	c #222034",
"+	c #99E550",
"@	c #8F563B",
"#	c #663931",
"$	c #6ABE30",
"%	c #D95763",
"&	c #AC3232",
"*	c #FFFFFF",
"  ...    ..     ",
" .+++. ..@#.    ",
" .++$$.@#..     ",
" ..$...#..      ",
"  ..%%..%&..    ",
" .%%**%%%%&&.   ",
" .%****%%%&&.   ",
".%****%%%%%&&.  ",
".%***%%%%%%&&.  ",
".%%*%%%%%%&&&.  ",
".%%%%%%%%&&&&.  ",
".%%%%%%%%&&&&.  ",
" .%%%%%&&&&&.   ",
" .&%&&&&&&&&.   ",
"  .&&&..&&&.    ",
"   ...  ...     "};
