/* XPM */
static char * player_xpm[] = {
"16 16 116 2",
"  	c #489551",
". 	c #496C56",
"+ 	c #497C55",
"@ 	c #545558",
"# 	c #CE4C41",
"$ 	c #B03E4A",
"% 	c #7A4354",
"& 	c #479252",
"* 	c #489451",
"= 	c #615256",
"- 	c #A0394E",
"; 	c #C84843",
"> 	c #B83747",
", 	c #7C4054",
"' 	c #489351",
") 	c #635656",
"! 	c #C34544",
"~ 	c #CE4E41",
"{ 	c #CA4A42",
"] 	c #824553",
"^ 	c #487F54",
"/ 	c #B53448",
"( 	c #953850",
"_ 	c #7C2A3D",
": 	c #7C2B3D",
"< 	c #85344F",
"[ 	c #BE3946",
"} 	c #4E5F57",
"| 	c #A8334A",
"1 	c #2D293A",
"2 	c #262634",
"3 	c #292634",
"4 	c #282634",
"5 	c #272634",
"6 	c #92334B",
"7 	c #4E6057",
"8 	c #A73147",
"9 	c #2E2736",
"0 	c #772B3C",
"a 	c #472736",
"b 	c #5B2938",
"c 	c #8F2E42",
"d 	c #489252",
"e 	c #6C353D",
"f 	c #6A3551",
"g 	c #2C2634",
"h 	c #2A2735",
"i 	c #2B2635",
"j 	c #4C334E",
"k 	c #892F42",
"l 	c #498C52",
"m 	c #755F53",
"n 	c #CE4E42",
"o 	c #C74643",
"p 	c #AE3C4B",
"q 	c #4F395A",
"r 	c #9A374F",
"s 	c #C64444",
"t 	c #D04F41",
"u 	c #95514F",
"v 	c #4A6A57",
"w 	c #C54444",
"x 	c #C74743",
"y 	c #D04F40",
"z 	c #6D3756",
"A 	c #CC4D42",
"B 	c #C94942",
"C 	c #CB4A42",
"D 	c #5E4857",
"E 	c #316743",
"F 	c #B93747",
"G 	c #D04E40",
"H 	c #733755",
"I 	c #C14145",
"J 	c #BE3C46",
"K 	c #4A403A",
"L 	c #376742",
"M 	c #6A3856",
"N 	c #B63748",
"O 	c #C24045",
"P 	c #6C3857",
"Q 	c #353F3C",
"R 	c #41705A",
"S 	c #32384D",
"T 	c #B43447",
"U 	c #CC4C42",
"V 	c #6C3856",
"W 	c #BF4045",
"X 	c #BC3847",
"Y 	c #383349",
"Z 	c #3C545E",
"` 	c #447F56",
" .	c #374258",
"..	c #54334D",
"+.	c #B1324A",
"@.	c #B73248",
"#.	c #623858",
"$.	c #B33249",
"%.	c #B63248",
"&.	c #75344F",
"*.	c #343C4F",
"=.	c #416F5A",
"-.	c #448356",
";.	c #3B5559",
">.	c #372E3E",
",.	c #8D334C",
"'.	c #4C3755",
").	c #9E3148",
"!.	c #3E3044",
"~.	c #374950",
"{.	c #406E5A",
"].	c #468C54",
"^.	c #438A4D",
"/.	c #448A4D",
"(.	c #468C52",
"_.	c #479152",
"            . +                 ",
"          @ # $ % &             ",
"        * = - ; > , '           ",
"        ) ! ~ ~ ~ { ]           ",
"      ^ / ( _ : : < [ }         ",
"      ^ | 1 2 3 4 5 6 7         ",
"      ^ 8 9 0 3 a b c 7         ",
"      d e f g h i j k l         ",
"      m n o p q r s t u '       ",
"    v w x ~ y z A ~ B C D       ",
"    E w F ~ G H A ~ I J K       ",
"    L M N ~ G H A ~ O P Q       ",
"    R S T U o V W ~ X Y Z       ",
"    `  ...+.@.#.$.%.&.*.=.      ",
"      -.;.>.,.'.).!.~.{.        ",
"        * ].^./.^.(._.          "};
