/* XPM */
static char * Wall_xpm[] = {
"16 16 4 1",
" 	c #3B485F",
".	c #57719C",
"+	c #352E3F",
"@	c #7799C3",
" .    .. .    ..",
"   ++ .  .  +  .",
"  +  + +    .+ .",
" + . + ++ +.. + ",
" +.@. ++ +  @++ ",
"+ .@   +  +    +",
" + .  +.@  + +++",
". + ++ .  +++ + ",
"@. + ++   ++ +++",
"@.  +  + + .+ + ",
".  +  . ++++ +++",
"+ +  @ . ++ +++ ",
"++ +   +++@  +  ",
"+   + +++  ++++ ",
"++++++++++++++++",
" .  ++++++++  ++"};
